<?xml version="1.0" standalone="no"?>
<!DOCTYPE svg PUBLIC "-//W3C//DTD SVG 20010904//EN"
 "http://www.w3.org/TR/2001/REC-SVG-20010904/DTD/svg10.dtd">
<svg version="1.0" xmlns="http://www.w3.org/2000/svg"
 width="1280.000000pt" height="1026.000000pt" viewBox="0 0 1280.000000 1026.000000"
 preserveAspectRatio="xMidYMid meet">
<g transform="translate(0.000000,1026.000000) scale(0.100000,-0.100000)"
fill="#000000" stroke="none">
<path d="M10435 9299 c-666 -43 -1570 -535 -2657 -1447 -274 -231 -257 -218
-267 -206 -5 5 -30 58 -56 117 -107 253 -239 442 -456 652 -477 463 -1172 742
-2089 841 -197 21 -776 30 -995 15 -890 -60 -1595 -289 -2138 -694 -289 -216
-484 -443 -617 -720 -225 -467 -207 -1057 46 -1485 237 -400 680 -693 1236
-816 482 -108 1089 -95 1699 34 380 80 710 196 1067 373 180 89 184 91 212
141 46 80 47 96 3 183 -35 72 -42 80 -93 105 -30 15 -65 27 -78 27 -13 1 -79
-24 -148 -54 -363 -161 -700 -276 -1001 -341 -537 -116 -1043 -108 -1433 22
-258 86 -482 239 -626 426 -92 118 -166 291 -195 449 -19 106 -17 380 5 498
73 402 313 740 713 1007 110 73 313 176 449 228 572 217 1410 254 2051 92 461
-117 872 -361 1141 -678 216 -255 361 -575 412 -908 6 -41 13 -86 16 -100 4
-21 -14 -45 -117 -150 -452 -465 -790 -916 -1088 -1453 -572 -1028 -983 -2438
-1041 -3574 -12 -230 -7 -330 25 -470 21 -93 36 -110 108 -125 54 -11 61 -11
100 10 131 70 422 321 611 527 518 564 998 1308 1467 2270 533 1095 835 2068
879 2834 6 105 14 169 22 179 34 41 386 367 528 489 645 552 1267 900 1733
969 273 40 507 -15 644 -152 178 -178 172 -447 -17 -839 -224 -463 -657 -1023
-1366 -1763 l-99 -104 -149 -34 c-201 -46 -363 -102 -531 -184 -547 -266 -980
-748 -1223 -1360 -70 -178 -95 -257 -88 -285 7 -26 94 -95 121 -95 48 0 301
134 505 268 389 254 859 643 1460 1206 l115 108 55 -7 c197 -23 462 -97 623
-174 345 -165 545 -441 603 -832 23 -156 15 -514 -15 -714 -70 -461 -245 -922
-495 -1305 -300 -460 -656 -770 -978 -852 -64 -16 -103 -19 -187 -16 -95 4
-112 7 -166 35 -59 31 -122 88 -162 148 -121 181 -83 573 88 906 207 402 535
725 944 926 72 35 137 72 147 81 9 9 23 37 31 61 12 37 12 53 1 110 -22 104
-25 107 -102 130 l-69 21 -114 -34 c-523 -154 -951 -398 -1285 -732 -351 -352
-520 -737 -501 -1139 13 -266 104 -474 280 -642 137 -130 293 -208 509 -255
136 -29 425 -31 598 -4 406 63 796 227 1130 477 408 304 775 751 1011 1232
185 377 274 724 286 1113 15 507 -104 908 -367 1229 -278 339 -690 546 -1240
625 -85 12 -159 26 -164 31 -6 5 56 71 150 160 206 196 562 556 727 734 595
642 915 1135 1003 1545 23 107 23 296 1 396 -37 163 -99 283 -205 396 -223
236 -537 342 -937 317z m-3809 -2996 c-89 -1275 -424 -2411 -941 -3193 -133
-203 -257 -355 -279 -347 -23 9 -39 187 -38 422 3 941 274 1838 799 2639 157
240 420 576 450 576 13 0 14 -14 9 -97z"/>
</g>
</svg>
